<?xml version="1.0" encoding="UTF-8" standalone="no"?><!-- Generator: Gravit.io --><svg xmlns="http://www.w3.org/2000/svg" xmlns:xlink="http://www.w3.org/1999/xlink" style="isolation:isolate" viewBox="0 0 350 92.33" width="350pt" height="92.33pt"><defs><clipPath id="_clipPath_5ftMgDXoNxMIicvOeQ5RCyOuloAOrytN"><rect width="350" height="92.33"/></clipPath></defs><g clip-path="url(#_clipPath_5ftMgDXoNxMIicvOeQ5RCyOuloAOrytN)"><path d=" M 70.776 38.907 L 70.776 48.575 L 70.776 58.242 L 73.518 58.242 L 76.261 58.242 L 76.261 48.575 L 76.261 38.907 L 73.518 38.907 L 70.776 38.907 Z " fill="rgb(254,254,254)"/><path d=" M 70.633 31.908 L 70.633 34.343 L 70.633 36.777 L 73.519 36.777 L 76.405 36.777 L 76.405 34.343 L 76.405 31.908 L 73.519 31.908 L 70.633 31.908 Z " fill="rgb(254,254,254)"/><path d=" M 94.387 41.395 C 93.701 40.71 92.853 40.196 91.848 39.853 C 90.842 39.511 89.679 39.339 88.361 39.339 C 87.009 39.339 85.828 39.493 84.727 39.763 C 83.627 40.034 82.608 40.421 81.58 40.89 L 81.995 42.026 L 82.41 43.163 C 83.276 42.766 84.142 42.423 85.066 42.18 C 85.99 41.936 86.973 41.791 88.074 41.791 C 89.823 41.791 91.212 42.224 92.163 43.077 C 93.115 43.93 93.629 45.202 93.629 46.879 L 93.629 47.204 L 93.629 47.529 C 92.799 47.294 91.96 47.095 91.031 46.955 C 90.102 46.815 89.083 46.734 87.893 46.734 C 85.53 46.734 83.536 47.257 82.134 48.272 C 80.732 49.287 79.92 50.793 79.92 52.76 L 79.92 52.795 L 79.92 52.83 C 79.92 54.743 80.795 56.195 82.103 57.169 C 83.411 58.143 85.151 58.639 86.883 58.639 C 88.524 58.639 89.886 58.26 91 57.67 C 92.114 57.079 92.98 56.276 93.629 55.429 L 93.629 56.836 L 93.629 58.242 L 94.964 58.242 L 96.299 58.242 L 96.299 52.543 L 96.299 46.843 C 96.299 45.652 96.137 44.606 95.817 43.7 C 95.496 42.793 95.018 42.026 94.387 41.395 Z  M 93.665 50.486 L 93.665 51.388 C 93.665 52.868 92.961 54.13 91.83 55.023 C 90.698 55.915 89.138 56.438 87.424 56.438 C 86.161 56.438 84.988 56.096 84.132 55.46 C 83.275 54.825 82.734 53.896 82.734 52.724 L 82.734 52.687 L 82.734 52.651 C 82.734 51.479 83.221 50.513 84.146 49.841 C 85.07 49.169 86.432 48.79 88.182 48.79 C 89.319 48.79 90.347 48.889 91.262 49.038 C 92.177 49.188 92.98 49.386 93.665 49.584 L 93.665 50.486 Z " fill="rgb(254,254,254)"/><path d=" M 122.446 39.195 C 120.822 39.195 119.515 39.609 118.446 40.281 C 117.377 40.953 116.548 41.882 115.88 42.911 C 115.375 41.864 114.635 40.935 113.643 40.268 C 112.651 39.6 111.406 39.195 109.891 39.195 C 108.322 39.195 107.123 39.618 106.162 40.272 C 105.202 40.926 104.481 41.81 103.867 42.73 L 103.867 41.161 L 103.867 39.591 L 102.478 39.591 L 101.09 39.591 L 101.09 48.917 L 101.09 58.242 L 102.478 58.242 L 103.867 58.242 L 103.867 52.921 L 103.867 47.599 C 103.867 45.886 104.426 44.416 105.355 43.375 C 106.284 42.333 107.583 41.72 109.062 41.72 C 110.541 41.72 111.741 42.234 112.571 43.186 C 113.401 44.137 113.861 45.526 113.861 47.275 L 113.861 52.759 L 113.861 58.242 L 115.249 58.242 L 116.638 58.242 L 116.638 52.868 L 116.638 47.493 C 116.638 45.652 117.215 44.209 118.144 43.226 C 119.073 42.243 120.354 41.72 121.761 41.72 C 123.276 41.72 124.484 42.225 125.314 43.181 C 126.143 44.137 126.594 45.544 126.594 47.348 L 126.594 52.795 L 126.594 58.242 L 127.983 58.242 L 129.373 58.242 L 129.373 52.47 L 129.373 46.698 C 129.373 44.389 128.714 42.514 127.519 41.215 C 126.324 39.916 124.592 39.195 122.446 39.195 Z " fill="rgb(254,254,254)"/><path d=" M 148.509 38.907 L 148.509 40.169 L 148.509 41.431 C 147.769 40.62 146.957 39.898 145.956 39.379 C 144.955 38.861 143.764 38.545 142.267 38.545 C 140.048 38.545 137.902 39.356 136.31 40.89 C 134.718 42.423 133.681 44.677 133.681 47.563 L 133.681 47.599 L 133.681 47.636 C 133.681 50.503 134.7 52.758 136.283 54.296 C 137.866 55.834 140.012 56.656 142.267 56.656 C 143.728 56.656 144.9 56.358 145.911 55.817 C 146.921 55.275 147.768 54.491 148.58 53.516 L 148.58 53.986 L 148.58 54.455 C 148.58 56.187 148.138 57.503 147.228 58.387 C 146.317 59.27 144.938 59.721 143.061 59.721 C 141.78 59.721 140.644 59.559 139.58 59.257 C 138.515 58.955 137.523 58.513 136.531 57.953 L 135.594 60.009 L 134.656 62.066 C 135.882 62.715 137.235 63.221 138.673 63.563 C 140.112 63.906 141.636 64.087 143.206 64.087 C 145.081 64.087 146.713 63.888 148.102 63.464 C 149.491 63.04 150.636 62.391 151.538 61.489 C 152.35 60.677 152.963 59.64 153.374 58.373 C 153.784 57.107 153.992 55.61 153.992 53.878 L 153.992 46.392 L 153.992 38.907 L 151.251 38.907 L 148.509 38.907 Z  M 148.58 47.599 L 148.58 47.636 C 148.58 48.953 148.066 50.071 147.219 50.861 C 146.371 51.65 145.19 52.11 143.856 52.11 C 142.52 52.11 141.348 51.659 140.509 50.874 C 139.67 50.09 139.165 48.971 139.165 47.636 L 139.165 47.599 L 139.165 47.563 C 139.165 46.247 139.67 45.129 140.509 44.339 C 141.348 43.55 142.52 43.09 143.856 43.09 C 145.19 43.09 146.371 43.55 147.219 44.339 C 148.066 45.129 148.58 46.247 148.58 47.563 L 148.58 47.599 Z " fill="rgb(254,254,254)"/><path d=" M 158.574 31.908 L 158.574 45.075 L 158.574 58.242 L 161.317 58.242 L 164.059 58.242 L 164.059 45.075 L 164.059 31.908 L 161.317 31.908 L 158.574 31.908 Z " fill="rgb(254,254,254)"/><path d=" M 178.655 38.545 C 175.643 38.545 173.018 39.672 171.147 41.494 C 169.275 43.316 168.156 45.832 168.156 48.611 L 168.156 48.647 L 168.156 48.683 C 168.156 51.461 169.266 53.959 171.124 55.762 C 172.982 57.566 175.589 58.675 178.582 58.675 C 181.595 58.675 184.22 57.548 186.091 55.726 C 187.962 53.904 189.081 51.388 189.081 48.611 L 189.081 48.575 L 189.081 48.538 C 189.081 45.76 187.971 43.262 186.114 41.458 C 184.256 39.654 181.649 38.545 178.655 38.545 Z  M 183.67 48.647 L 183.67 48.683 C 183.67 50.108 183.201 51.424 182.34 52.385 C 181.478 53.345 180.224 53.949 178.655 53.949 C 177.139 53.949 175.868 53.327 174.975 52.348 C 174.082 51.37 173.568 50.036 173.568 48.611 L 173.568 48.575 L 173.568 48.538 C 173.568 47.114 174.038 45.797 174.899 44.836 C 175.76 43.876 177.014 43.271 178.582 43.271 C 180.098 43.271 181.37 43.894 182.263 44.872 C 183.156 45.851 183.67 47.186 183.67 48.611 L 183.67 48.647 Z " fill="rgb(254,254,254)"/><path d=" M 204.191 38.545 C 202.766 38.545 201.593 38.879 200.61 39.438 C 199.627 39.997 198.833 40.782 198.165 41.684 L 198.165 36.796 L 198.165 31.908 L 195.424 31.908 L 192.683 31.908 L 192.683 45.075 L 192.683 58.242 L 195.424 58.242 L 198.165 58.242 L 198.165 56.979 L 198.165 55.716 C 198.815 56.493 199.591 57.214 200.569 57.742 C 201.548 58.269 202.73 58.602 204.191 58.602 C 206.481 58.602 208.682 57.719 210.31 56.028 C 211.938 54.338 212.994 51.84 212.994 48.611 L 212.994 48.575 L 212.994 48.538 C 212.994 45.31 211.92 42.811 210.283 41.12 C 208.646 39.429 206.445 38.545 204.191 38.545 Z  M 207.509 48.575 L 207.509 48.611 C 207.509 50.234 206.968 51.568 206.107 52.497 C 205.246 53.426 204.064 53.949 202.783 53.949 C 201.503 53.949 200.33 53.417 199.478 52.483 C 198.625 51.55 198.093 50.216 198.093 48.611 L 198.093 48.575 L 198.093 48.538 C 198.093 46.933 198.625 45.598 199.478 44.664 C 200.33 43.731 201.503 43.199 202.783 43.199 C 204.064 43.199 205.246 43.731 206.107 44.664 C 206.968 45.598 207.509 46.933 207.509 48.538 L 207.509 48.575 Z " fill="rgb(254,254,254)"/><path d=" M 231.672 40.854 C 230.986 40.168 230.102 39.627 229.015 39.257 C 227.928 38.888 226.639 38.69 225.141 38.69 C 223.5 38.69 222.156 38.843 220.957 39.114 C 219.757 39.384 218.702 39.772 217.638 40.24 L 218.322 42.333 L 219.007 44.426 C 219.891 44.101 220.703 43.839 221.556 43.659 C 222.408 43.479 223.301 43.38 224.347 43.38 C 225.718 43.38 226.755 43.695 227.449 44.295 C 228.144 44.895 228.496 45.779 228.496 46.915 L 228.496 47.077 L 228.496 47.239 C 227.81 47.005 227.116 46.806 226.349 46.666 C 225.583 46.526 224.744 46.445 223.77 46.445 C 221.479 46.445 219.531 46.932 218.156 47.947 C 216.781 48.962 215.978 50.504 215.978 52.615 L 215.978 52.651 L 215.978 52.687 C 215.978 54.599 216.727 56.078 217.931 57.079 C 219.135 58.08 220.794 58.602 222.615 58.602 C 223.951 58.602 225.078 58.359 226.038 57.931 C 226.999 57.503 227.792 56.89 228.46 56.151 L 228.46 57.197 L 228.46 58.242 L 231.111 58.242 L 233.763 58.242 L 233.763 52.632 L 233.763 47.022 C 233.763 45.724 233.601 44.543 233.258 43.506 C 232.916 42.469 232.393 41.576 231.672 40.854 Z  M 228.568 50.938 L 228.568 51.424 C 228.568 52.416 228.135 53.264 227.382 53.864 C 226.629 54.463 225.556 54.815 224.275 54.815 C 223.391 54.815 222.642 54.599 222.115 54.197 C 221.588 53.796 221.282 53.209 221.282 52.47 L 221.282 52.434 L 221.282 52.398 C 221.282 51.532 221.642 50.865 222.296 50.414 C 222.95 49.963 223.896 49.729 225.069 49.729 C 225.737 49.729 226.377 49.801 226.968 49.927 C 227.559 50.053 228.1 50.234 228.568 50.451 L 228.568 50.938 Z " fill="rgb(254,254,254)"/><path d=" M 237.822 31.908 L 237.822 45.075 L 237.822 58.242 L 240.564 58.242 L 243.306 58.242 L 243.306 45.075 L 243.306 31.908 L 240.564 31.908 L 237.822 31.908 Z " fill="rgb(254,254,254)"/><path d=" M 262.345 53.408 C 261.606 54.202 260.776 54.897 259.834 55.393 C 258.891 55.889 257.836 56.187 256.645 56.187 C 254.697 56.187 252.984 55.384 251.757 54.076 C 250.531 52.768 249.791 50.955 249.791 48.935 L 249.791 48.899 L 249.791 48.862 C 249.791 46.86 250.513 45.057 251.707 43.754 C 252.902 42.451 254.571 41.648 256.464 41.648 C 257.727 41.648 258.774 41.964 259.689 42.473 C 260.604 42.983 261.389 43.686 262.128 44.462 L 263.048 43.487 L 263.968 42.513 C 263.102 41.593 262.119 40.763 260.911 40.164 C 259.702 39.564 258.268 39.195 256.5 39.195 C 253.776 39.195 251.387 40.313 249.678 42.089 C 247.969 43.866 246.941 46.301 246.941 48.935 L 246.941 48.971 L 246.941 49.007 C 246.941 51.623 247.969 54.04 249.678 55.803 C 251.387 57.566 253.776 58.675 256.5 58.675 C 258.25 58.675 259.684 58.296 260.915 57.656 C 262.146 57.016 263.174 56.114 264.113 55.069 L 263.229 54.238 L 262.345 53.408 Z " fill="rgb(254,254,254)"/><path d=" M 267.478 32.449 L 267.478 33.982 L 267.478 35.514 L 269.065 35.514 L 270.652 35.514 L 270.652 33.982 L 270.652 32.449 L 269.065 32.449 L 267.478 32.449 Z " fill="rgb(254,254,254)"/><path d=" M 267.658 39.591 L 267.658 48.917 L 267.658 58.242 L 269.046 58.242 L 270.435 58.242 L 270.435 48.917 L 270.435 39.591 L 269.046 39.591 L 267.658 39.591 Z " fill="rgb(254,254,254)"/><path d=" M 279.065 39.591 L 279.065 36.777 L 279.065 33.964 L 277.677 33.964 L 276.288 33.964 L 276.288 36.777 L 276.288 39.591 L 274.989 39.591 L 273.69 39.591 L 273.69 40.818 L 273.69 42.044 L 274.989 42.044 L 276.288 42.044 L 276.288 47.673 L 276.288 53.301 C 276.288 55.194 276.856 56.511 277.799 57.354 C 278.741 58.197 280.058 58.566 281.555 58.566 C 282.223 58.566 282.818 58.494 283.368 58.359 C 283.918 58.224 284.423 58.026 284.91 57.774 L 284.91 56.583 L 284.91 55.393 C 284.423 55.627 283.981 55.789 283.544 55.893 C 283.106 55.997 282.673 56.042 282.205 56.042 C 281.267 56.042 280.482 55.834 279.931 55.343 C 279.381 54.851 279.065 54.075 279.065 52.939 L 279.065 47.492 L 279.065 42.044 L 282.024 42.044 L 284.982 42.044 L 284.982 40.818 L 284.982 39.591 L 282.024 39.591 L 279.065 39.591 Z " fill="rgb(254,254,254)"/><path d=" M 288.274 39.591 L 288.274 48.917 L 288.274 58.242 L 289.663 58.242 L 291.052 58.242 L 291.052 48.917 L 291.052 39.591 L 289.663 39.591 L 288.274 39.591 Z " fill="rgb(254,254,254)"/><path d=" M 288.095 32.449 L 288.095 33.982 L 288.095 35.514 L 289.682 35.514 L 291.269 35.514 L 291.269 33.982 L 291.269 32.449 L 289.682 32.449 L 288.095 32.449 Z " fill="rgb(254,254,254)"/><path d=" M 294.898 39.591 L 294.898 40.763 L 294.898 41.936 L 300.869 41.936 L 306.839 41.936 L 300.652 49.205 L 294.464 56.475 L 294.464 57.358 L 294.464 58.242 L 302.545 58.242 L 310.626 58.242 L 310.626 57.07 L 310.626 55.897 L 304.421 55.897 L 298.217 55.897 L 304.421 48.628 L 310.626 41.359 L 310.626 40.475 L 310.626 39.591 L 302.762 39.591 L 294.898 39.591 Z " fill="rgb(254,254,254)"/><path d=" M 321.657 39.195 C 319.078 39.195 316.842 40.277 315.25 42.031 C 313.658 43.786 312.711 46.212 312.711 48.899 L 312.711 48.935 L 312.711 48.971 C 312.711 51.857 313.757 54.283 315.443 55.987 C 317.13 57.692 319.456 58.675 322.017 58.675 C 323.785 58.675 325.237 58.323 326.482 57.71 C 327.727 57.097 328.764 56.222 329.702 55.175 L 328.836 54.4 L 327.97 53.625 C 327.213 54.418 326.384 55.076 325.423 55.536 C 324.462 55.996 323.371 56.257 322.09 56.257 C 320.431 56.257 318.888 55.689 317.712 54.616 C 316.535 53.543 315.723 51.965 315.525 49.944 L 322.92 49.944 L 330.315 49.944 C 330.333 49.782 330.343 49.647 330.347 49.507 C 330.352 49.368 330.352 49.223 330.352 49.043 C 330.352 46.319 329.558 43.857 328.075 42.076 C 326.591 40.295 324.418 39.195 321.657 39.195 Z  M 321.532 47.889 L 315.525 47.889 C 315.705 46.067 316.409 44.479 317.473 43.348 C 318.537 42.216 319.962 41.54 321.585 41.54 C 323.443 41.54 324.859 42.279 325.847 43.443 C 326.834 44.606 327.393 46.193 327.538 47.889 L 321.532 47.889 Z " fill="rgb(254,254,254)"/><path d=" M 348.12 41.265 C 346.898 39.952 345.113 39.195 342.858 39.195 C 341.252 39.195 339.963 39.6 338.921 40.259 C 337.879 40.917 337.086 41.828 336.473 42.839 L 336.473 41.215 L 336.473 39.591 L 335.084 39.591 L 333.695 39.591 L 333.695 48.917 L 333.695 58.242 L 335.084 58.242 L 336.473 58.242 L 336.473 52.903 L 336.473 47.563 C 336.473 45.814 337.068 44.354 338.065 43.33 C 339.061 42.307 340.459 41.72 342.064 41.72 C 343.705 41.72 344.995 42.262 345.874 43.235 C 346.753 44.209 347.222 45.616 347.222 47.348 L 347.222 52.795 L 347.222 58.242 L 348.611 58.242 L 350 58.242 L 350 52.452 L 350 46.662 C 350 44.444 349.342 42.577 348.12 41.265 Z " fill="rgb(254,254,254)"/><path d=" M 58.677 40.561 C 57.537 40.561 56.614 41.485 56.614 42.624 C 56.614 43.763 57.537 44.687 58.677 44.687 C 59.816 44.687 60.739 43.763 60.739 42.624 C 60.739 41.485 59.816 40.561 58.677 40.561 Z " fill="rgb(254,254,254)"/><path d=" M 31.764 16.847 C 34.63 17.524 38.359 18.9 42.134 21.195 C 42.314 20.721 42.583 20.291 42.921 19.925 C 41.797 19.316 40.672 18.799 39.573 18.377 C 36.673 17.261 33.959 16.735 31.779 16.705 C 31.638 16.706 31.631 16.819 31.764 16.847 Z " fill="rgb(254,254,254)"/><path d=" M 50.874 28.507 C 51.965 29.74 52.938 30.989 53.818 32.204 C 55.564 34.645 56.879 36.975 57.92 38.87 C 57.988 38.99 58.093 38.947 58.052 38.815 C 57.436 36.739 56.443 34.192 54.863 31.524 C 54.067 30.196 53.138 28.834 52.053 27.5 C 51.2 26.469 50.256 25.454 49.224 24.485 C 48.952 24.972 48.578 25.393 48.134 25.724 C 49.113 26.63 50.026 27.565 50.874 28.507 Z " fill="rgb(254,254,254)"/><path d=" M 45.798 24.644 C 46.937 24.644 47.861 23.721 47.861 22.581 C 47.861 21.442 46.937 20.519 45.798 20.519 C 44.659 20.519 43.735 21.442 43.735 22.581 C 43.735 23.721 44.659 24.644 45.798 24.644 Z " fill="rgb(254,254,254)"/><path d=" M 2.944 33.04 C 2.944 33.04 2.944 33.04 2.944 33.04 C 3.319 33.56 3.925 33.901 4.614 33.901 C 5.754 33.901 6.677 32.977 6.677 31.838 C 6.677 31.19 6.372 30.618 5.904 30.24 C 5.904 30.24 5.903 30.24 5.903 30.239 C 5.798 30.155 5.686 30.081 5.566 30.018 C 5.566 30.018 5.565 30.018 5.564 30.017 C 5.323 29.891 5.056 29.813 4.77 29.791 C 4.77 29.791 4.77 29.791 4.77 29.791 L 4.77 29.791 C 4.718 29.787 4.668 29.775 4.614 29.775 C 3.475 29.775 2.552 30.699 2.552 31.838 C 2.552 32.288 2.7 32.701 2.944 33.04 L 2.944 33.04 Z " fill="rgb(254,254,254)"/><path d=" M 0.142 44.978 C 0.718 42.526 1.494 39.49 2.931 36.3 C 3.045 36.043 3.17 35.784 3.292 35.525 C 2.87 35.374 2.48 35.155 2.139 34.876 C 2.01 35.198 1.887 35.519 1.773 35.838 C 1.451 36.685 1.235 37.54 0.986 38.349 C 0.803 39.176 0.6 39.966 0.467 40.736 C 0.352 41.51 0.222 42.244 0.151 42.95 C 0.099 43.65 0.048 44.32 0.001 44.959 C -0.01 45.12 0.103 45.134 0.142 44.978 Z " fill="rgb(254,254,254)"/><path d=" M 9.242 26.826 C 12.076 23.88 15.332 21.674 18.439 20.08 C 21.556 18.491 24.513 17.459 26.951 16.853 C 27.106 16.817 27.095 16.704 26.931 16.711 C 24.4 16.864 21.256 17.545 17.912 18.949 C 14.581 20.356 11.049 22.558 8.049 25.676 C 7.277 26.468 6.571 27.296 5.925 28.147 C 6.451 28.334 6.926 28.629 7.322 29.008 C 7.917 28.262 8.555 27.531 9.242 26.826 Z " fill="rgb(254,254,254)"/><path d=" M 19.278 63.969 C 20.627 64.092 21.829 63.984 22.765 63.822 C 22.825 63.812 22.825 63.721 22.765 63.707 C 21.833 63.499 20.697 63.306 19.435 62.984 C 18.173 62.672 16.783 62.284 15.338 61.798 C 14.994 61.682 14.655 61.564 14.323 61.444 C 13.806 59.573 13.314 57.507 12.947 55.272 C 12.536 55.438 12.093 55.539 11.63 55.568 C 12.136 57.599 12.767 59.448 13.443 61.116 C 12.71 60.836 12.013 60.549 11.368 60.262 C 10.187 59.732 9.169 59.216 8.448 58.626 C 8.4 58.589 8.326 58.641 8.356 58.695 C 8.82 59.561 9.756 60.397 10.887 61.136 C 11.83 61.751 12.939 62.307 14.15 62.771 C 14.485 63.51 14.824 64.206 15.159 64.853 C 15.251 65.039 15.376 64.985 15.317 64.787 C 15.138 64.219 14.954 63.62 14.77 63 C 14.819 63.017 14.866 63.038 14.916 63.055 C 16.432 63.564 17.929 63.857 19.278 63.969 Z " fill="rgb(254,254,254)"/><path d=" M 13.792 51.338 C 13.792 49.997 12.705 48.91 11.364 48.91 C 10.023 48.91 8.935 49.997 8.935 51.338 C 8.935 52.679 10.023 53.766 11.364 53.766 C 12.705 53.766 13.792 52.679 13.792 51.338 Z " fill="rgb(254,254,254)"/><path d=" M 18.85 24.831 C 18.343 25.412 17.846 26.028 17.36 26.67 C 17.109 26.549 16.865 26.424 16.63 26.293 C 15.639 25.739 14.79 25.089 14.206 24.339 C 14.139 24.246 14.01 24.291 14.054 24.418 C 14.42 25.353 15.153 26.257 16.1 27.05 C 16.298 27.216 16.511 27.375 16.728 27.532 C 14.638 30.478 12.843 33.983 11.753 37.901 C 11.534 37.816 11.309 37.735 11.096 37.646 C 9.445 36.947 7.972 36.147 6.851 35.175 C 6.717 35.051 6.575 35.146 6.689 35.315 C 7.592 36.566 8.956 37.683 10.567 38.673 C 10.844 38.842 11.132 39.005 11.426 39.165 C 10.856 41.568 10.577 43.973 10.527 46.288 C 10.525 46.586 10.527 46.883 10.533 47.178 C 10.802 47.124 11.079 47.095 11.364 47.095 C 11.711 47.095 12.047 47.141 12.371 47.221 C 12.376 46.929 12.375 46.64 12.386 46.346 C 12.5 44.292 12.776 42.181 13.256 40.064 C 14.172 40.467 15.141 40.833 16.154 41.16 C 18.235 41.811 20.499 42.276 22.874 42.595 C 23.468 42.678 24.07 42.715 24.678 42.775 C 25.285 42.82 25.899 42.905 26.517 42.912 C 27.15 42.926 27.789 42.955 28.433 42.974 C 28.444 43.7 28.458 44.42 28.475 45.126 C 28.806 45.086 29.145 45.064 29.49 45.064 C 29.835 45.064 30.174 45.086 30.505 45.126 C 30.522 44.419 30.536 43.697 30.547 42.97 C 34.67 42.903 38.637 42.41 42.18 41.438 C 41.873 40.835 41.687 40.162 41.65 39.449 C 38.264 40.104 34.515 40.423 30.576 40.485 C 30.581 39.873 30.583 39.256 30.583 38.633 C 30.583 37.155 30.571 35.708 30.548 34.293 C 30.208 34.375 29.855 34.424 29.49 34.424 C 29.125 34.424 28.772 34.375 28.432 34.293 C 28.409 35.707 28.397 37.155 28.397 38.633 C 28.397 39.261 28.399 39.882 28.404 40.499 C 27.804 40.487 27.209 40.469 26.618 40.469 C 26.02 40.477 25.435 40.41 24.85 40.387 C 24.268 40.348 23.686 40.336 23.117 40.282 C 20.836 40.078 18.661 39.785 16.637 39.353 C 15.592 39.12 14.59 38.855 13.633 38.559 C 14.657 34.796 16.285 31.387 18.17 28.429 C 18.605 28.663 19.055 28.885 19.533 29.075 C 21.187 29.769 23.052 30.222 25.025 30.482 C 25.002 30.297 24.987 30.111 24.987 29.92 C 24.987 29.451 25.059 28.999 25.193 28.573 C 23.343 28.405 21.6 28.118 20.03 27.664 C 19.643 27.56 19.272 27.439 18.909 27.311 C 19.27 26.782 19.638 26.269 20.012 25.773 C 21.356 23.981 22.772 22.401 24.156 21.014 C 25.54 19.628 26.891 18.426 28.171 17.449 C 28.334 17.327 28.268 17.208 28.08 17.303 C 26.636 18.056 25.107 19.074 23.54 20.325 C 21.974 21.577 20.371 23.07 18.85 24.831 Z " fill="rgb(254,254,254)"/><path d=" M 49.772 39.19 C 49.772 37.445 48.357 36.03 46.612 36.03 C 44.867 36.03 43.452 37.445 43.452 39.19 C 43.452 40.935 44.867 42.35 46.612 42.35 C 48.357 42.35 49.772 40.935 49.772 39.19 Z " fill="rgb(254,254,254)"/><path d=" M 53.64 34.622 C 53.758 34.467 53.631 34.355 53.483 34.477 C 52.685 35.159 51.752 35.792 50.707 36.371 C 50.877 36.619 51.024 36.883 51.149 37.159 C 52.152 36.36 52.996 35.506 53.64 34.622 Z " fill="rgb(254,254,254)"/><path d=" M 58.098 48.094 C 57.704 49.076 57.247 51.781 56.309 52.892 C 56.231 52.984 56.17 53.023 56.12 53.023 C 55.9 53.023 55.876 52.284 55.532 51.883 C 55.306 51.62 54.989 51.559 54.742 51.559 C 54.527 51.559 54.366 51.606 54.366 51.606 C 54.366 51.606 54.972 54.754 53.26 58.156 C 51.548 61.558 46.049 66.566 40.714 67.013 C 39.855 67.086 39.07 67.121 38.358 67.121 C 34.652 67.121 32.903 66.154 32.624 64.324 C 32.231 61.74 33.424 61.298 34.767 57.494 C 36.66 52.135 34.415 46.923 29.49 46.923 C 24.565 46.923 22.32 52.135 24.213 57.494 C 25.556 61.298 26.572 61.719 26.356 64.324 C 26.21 66.091 25.063 67.116 21.475 67.116 C 20.826 67.116 20.098 67.082 19.281 67.013 C 13.947 66.566 7.432 61.558 5.72 58.156 C 4.008 54.754 4.614 51.606 4.614 51.606 C 4.614 51.606 4.453 51.559 4.237 51.559 C 3.991 51.559 3.674 51.62 3.448 51.883 C 3.104 52.284 3.08 53.023 2.86 53.023 C 2.81 53.023 2.749 52.984 2.671 52.892 C 1.733 51.781 1.276 49.076 0.882 48.094 C 0.669 47.562 0.341 47.402 0.082 47.363 C 0.7 63.075 13.626 75.625 29.49 75.625 C 45.354 75.625 58.28 63.075 58.898 47.363 C 58.639 47.402 58.311 47.562 58.098 48.094 Z " fill="rgb(254,254,254)"/><path d=" M 20.02 52.388 C 18.49 52.21 17.013 51.972 15.59 51.675 C 15.533 52.389 15.3 53.053 14.933 53.625 C 16.469 54.047 18.073 54.38 19.723 54.632 C 20.389 54.727 21.062 54.8 21.742 54.881 C 21.667 54.084 21.67 53.302 21.751 52.546 C 21.17 52.493 20.591 52.44 20.02 52.388 Z " fill="rgb(254,254,254)"/><path d=" M 1.926 43.723 C 1.782 43.543 1.642 43.631 1.751 43.835 C 2.587 45.435 3.722 47.207 5.421 48.752 C 5.985 49.27 6.609 49.759 7.275 50.219 C 7.399 49.765 7.594 49.34 7.852 48.96 C 7.248 48.623 6.671 48.266 6.133 47.882 C 4.38 46.644 3.043 45.136 1.926 43.723 Z " fill="rgb(254,254,254)"/><path d=" M 30.246 25.486 C 30.078 22.423 29.853 19.707 29.584 17.476 C 29.565 17.314 29.415 17.314 29.396 17.476 C 29.127 19.707 28.902 22.423 28.734 25.486 C 28.98 25.444 29.232 25.417 29.49 25.417 C 29.748 25.417 30 25.444 30.246 25.486 Z " fill="rgb(254,254,254)"/><path d=" M 26.802 29.92 C 26.802 31.405 28.005 32.609 29.49 32.609 C 30.975 32.609 32.178 31.405 32.178 29.92 C 32.178 28.436 30.975 27.232 29.49 27.232 C 28.005 27.232 26.802 28.436 26.802 29.92 Z " fill="rgb(254,254,254)"/><path d=" M 34.954 21.014 C 36.338 22.401 37.754 23.981 39.098 25.773 C 39.497 26.302 39.888 26.855 40.273 27.421 C 39.371 27.71 38.401 27.958 37.368 28.153 C 36.244 28.361 35.048 28.516 33.801 28.622 C 33.925 29.033 33.993 29.469 33.993 29.92 C 33.993 30.096 33.981 30.268 33.961 30.439 C 35.287 30.244 36.557 29.967 37.735 29.604 C 38.873 29.251 39.918 28.805 40.853 28.3 C 42.126 30.282 43.287 32.464 44.228 34.826 C 44.793 34.515 45.425 34.312 46.096 34.242 C 45.057 31.728 43.74 29.44 42.29 27.413 C 42.932 26.956 43.493 26.471 43.942 25.967 C 44.027 25.876 43.938 25.773 43.832 25.836 C 43.25 26.196 42.591 26.529 41.873 26.832 C 41.349 26.13 40.809 25.462 40.26 24.831 C 38.739 23.07 37.136 21.577 35.57 20.325 C 34.003 19.074 32.474 18.056 31.03 17.303 C 30.842 17.208 30.776 17.327 30.939 17.449 C 32.219 18.426 33.57 19.628 34.954 21.014 Z " fill="rgb(254,254,254)"/><path d=" M 48.134 52.325 C 49.61 51.753 50.983 51.099 52.216 50.35 C 52.693 50.04 53.175 49.77 53.602 49.429 C 53.819 49.266 54.033 49.105 54.245 48.946 C 54.452 48.782 54.644 48.601 54.839 48.432 C 55.608 47.745 56.279 47.019 56.752 46.222 C 56.871 46.009 56.722 45.935 56.581 46.102 C 55.996 46.767 55.241 47.347 54.416 47.885 C 54.207 48.017 54.003 48.159 53.785 48.286 C 53.563 48.408 53.339 48.532 53.112 48.657 C 52.671 48.922 52.173 49.12 51.69 49.357 C 50.653 49.824 49.537 50.233 48.359 50.596 C 48.509 49.207 48.593 47.768 48.583 46.288 C 48.566 45.473 48.516 44.646 48.439 43.813 C 47.873 44.037 47.257 44.165 46.612 44.165 C 46.588 44.165 46.564 44.162 46.54 44.161 C 46.621 44.895 46.684 45.624 46.724 46.346 C 46.787 47.97 46.747 49.549 46.643 51.081 C 46.117 51.217 45.583 51.347 45.039 51.468 C 44.427 51.592 43.808 51.718 43.18 51.846 C 42.544 51.942 41.9 52.038 41.248 52.136 C 40.923 52.186 40.595 52.236 40.266 52.286 C 39.933 52.318 39.598 52.351 39.261 52.384 C 38.593 52.452 37.917 52.521 37.234 52.591 C 37.31 53.327 37.312 54.088 37.24 54.864 C 37.308 54.857 37.377 54.851 37.445 54.845 C 38.154 54.743 38.856 54.643 39.55 54.543 C 39.896 54.492 40.241 54.442 40.584 54.391 C 40.924 54.321 41.262 54.252 41.599 54.182 C 42.27 54.041 42.934 53.909 43.585 53.76 C 44.231 53.581 44.867 53.404 45.496 53.23 C 45.829 53.129 46.159 53.024 46.485 52.916 C 46.468 53.074 46.456 53.236 46.439 53.392 C 46.078 56.28 45.48 58.914 44.841 61.252 C 44.343 61.438 43.835 61.621 43.308 61.798 C 41.864 62.284 40.474 62.672 39.212 62.984 C 37.95 63.306 36.813 63.499 35.882 63.707 C 35.822 63.721 35.822 63.812 35.882 63.822 C 36.818 63.984 38.02 64.092 39.369 63.969 C 40.717 63.857 42.215 63.564 43.73 63.055 C 43.958 62.978 44.176 62.891 44.397 62.808 C 44.193 63.496 43.99 64.162 43.793 64.787 C 43.734 64.985 43.859 65.039 43.951 64.853 C 44.32 64.14 44.695 63.369 45.064 62.545 C 46.054 62.13 46.966 61.654 47.76 61.136 C 48.891 60.397 49.827 59.561 50.29 58.695 C 50.321 58.641 50.246 58.589 50.199 58.626 C 49.477 59.216 48.46 59.732 47.279 60.262 C 46.799 60.476 46.286 60.689 45.756 60.899 C 46.609 58.766 47.385 56.338 47.917 53.626 C 47.996 53.199 48.067 52.764 48.134 52.325 Z " fill="rgb(254,254,254)"/></g></svg>